<?xml version="1.0" standalone="no"?>
<!DOCTYPE svg PUBLIC "-//W3C//DTD SVG 20010904//EN"
 "http://www.w3.org/TR/2001/REC-SVG-20010904/DTD/svg10.dtd">
<svg version="1.0" xmlns="http://www.w3.org/2000/svg"
 width="1020.000000pt" height="1020.000000pt" viewBox="0 0 1020.000000 1020.000000"
 preserveAspectRatio="xMidYMid meet">
<metadata>
Created by potrace 1.14, written by Peter Selinger 2001-2017
</metadata>
<g transform="translate(0.000000,1020.000000) scale(0.100000,-0.100000)"
fill="#000000" stroke="none">
<path d="M4440 9564 c-716 -64 -1331 -253 -1915 -589 -538 -310 -1051 -782
-1407 -1296 -566 -816 -819 -1844 -693 -2817 9 -64 18 -125 21 -134 4 -13 -14
-29 -68 -64 -40 -26 -109 -84 -154 -129 -139 -139 -200 -297 -192 -500 4 -118
31 -188 97 -254 45 -45 138 -96 194 -106 l37 -7 -43 -50 c-78 -92 -119 -153
-158 -234 -70 -147 -60 -234 32 -282 37 -20 54 -23 107 -18 50 4 274 71 373
111 12 4 20 -5 34 -42 10 -26 35 -85 56 -130 l38 -83 -42 -10 c-277 -71 -408
-210 -410 -435 -1 -99 25 -166 87 -223 65 -60 118 -86 295 -146 167 -57 224
-84 235 -112 3 -9 6 -73 6 -144 0 -276 66 -424 220 -494 100 -46 268 -44 420
3 l57 18 48 -59 c117 -145 312 -297 515 -401 344 -178 728 -270 1246 -298 720
-41 1709 128 2620 446 87 30 163 55 168 55 6 0 22 -28 35 -63 69 -180 228
-322 417 -372 80 -22 241 -22 324 0 258 67 450 301 452 552 1 73 -3 90 -31
148 -34 68 -78 112 -149 147 l-44 21 162 83 c956 495 1678 1043 2085 1583 385
509 506 1027 354 1502 l-21 65 64 81 c200 247 223 542 58 748 l-32 40 24 3
c200 26 253 132 160 322 -29 59 -57 96 -137 176 -55 55 -134 122 -175 149
l-75 48 0 131 c0 122 -2 138 -34 231 -131 390 -365 580 -741 602 -59 3 -151 0
-210 -6 -58 -7 -113 -13 -124 -14 -14 -2 -23 10 -36 48 -48 141 -200 369 -429
645 -116 140 -380 406 -516 519 -694 576 -1446 898 -2379 1017 -116 15 -714
28 -826 18z m618 -185 c800 -57 1554 -323 2187 -773 216 -153 490 -393 625
-547 l65 -74 -64 55 c-285 247 -572 443 -911 623 -336 178 -749 327 -1150 416
-114 26 -188 39 -428 75 -18 3 -27 -5 -42 -33 -27 -50 -38 -62 -92 -103 -139
-106 -439 -154 -697 -113 -196 32 -365 127 -395 223 -6 19 -13 22 -39 17 -228
-36 -309 -52 -466 -91 -518 -127 -1014 -344 -1450 -632 -64 -42 -120 -79 -125
-81 -43 -18 -379 -296 -514 -424 -117 -112 -117 -108 4 33 215 250 534 530
829 727 614 410 1306 641 2120 706 98 8 409 6 543 -4z m508 -664 c188 -94 354
-355 225 -355 -143 1 -422 313 -336 377 26 19 34 17 111 -22z m-539 -481 c141
-143 211 -364 115 -364 -90 0 -256 216 -277 362 -6 39 -4 49 14 67 18 18 24
19 53 9 18 -6 61 -40 95 -74z m-2340 -84 c40 -80 -22 -312 -112 -418 -123
-143 -161 98 -50 317 61 121 130 164 162 101z m690 -86 c12 -18 18 -54 21
-114 7 -149 -50 -320 -121 -360 -25 -14 -28 -13 -47 6 -25 25 -42 119 -34 194
23 212 122 363 181 274z m868 0 c53 -57 90 -208 83 -339 -5 -90 -25 -136 -62
-143 -84 -17 -168 290 -121 443 21 72 57 85 100 39z m5300 -1621 c-10 -41 -76
-103 -146 -139 -129 -64 -297 -107 -877 -224 -341 -68 -472 -118 -534 -201
-28 -38 -47 -88 -49 -128 -2 -35 -37 105 -38 149 -1 30 9 45 62 101 59 64 67
68 157 97 52 17 223 56 380 87 554 110 731 156 877 227 46 22 102 57 125 78
l43 38 3 -30 c2 -17 1 -42 -3 -55z m-1545 -1094 c0 -167 -73 -373 -168 -472
-76 -79 -177 -120 -322 -132 l-75 -5 70 23 c87 29 127 49 188 96 141 105 256
361 274 606 l7 90 12 -60 c7 -33 13 -99 14 -146z m1866 -161 c-49 -167 -196
-310 -435 -420 -58 -27 -127 -60 -153 -74 -27 -14 -48 -21 -48 -16 0 15 55 85
96 122 21 20 79 65 128 100 295 216 327 241 372 299 27 33 50 56 52 51 2 -5
-3 -33 -12 -62z m-3270 -451 c-68 -71 -81 -153 -45 -282 51 -185 61 -254 57
-400 -4 -123 -8 -150 -35 -226 -70 -201 -219 -344 -410 -394 -88 -23 -91 -18
-23 26 149 96 241 236 302 457 19 66 22 105 22 277 1 153 -3 220 -17 284 -43
210 2 294 164 300 25 1 25 0 -15 -42z m2494 -846 c-25 -51 -77 -85 -155 -106
-56 -14 -120 -20 -490 -45 -313 -20 -492 -74 -651 -193 -66 -50 -202 -199
-344 -377 -178 -224 -278 -319 -385 -371 -26 -13 -33 -14 -20 -4 129 100 201
180 394 434 256 338 341 423 496 497 142 69 295 95 665 114 267 14 394 38 475
88 38 24 42 14 15 -37z m-4592 -187 c2 -1 -10 -9 -26 -18 -48 -25 -139 -113
-223 -217 -43 -53 -97 -113 -121 -134 -139 -119 -309 -192 -488 -210 l-65 -6
88 52 c120 72 201 144 307 274 50 61 114 130 143 154 97 82 222 124 337 113
25 -3 47 -6 48 -8z m1961 -439 c-14 -119 -10 -432 6 -530 19 -119 58 -248 105
-354 118 -264 105 -411 -35 -411 -40 0 -39 -1 -24 37 22 59 3 259 -27 284 -8
6 -14 16 -14 21 0 6 -17 49 -39 97 -69 154 -86 241 -85 436 0 152 3 181 27
270 22 82 84 233 92 223 1 -2 -1 -34 -6 -73z m-683 -304 c53 -24 81 -77 65
-123 -33 -94 -233 -313 -347 -380 -107 -63 -168 -81 -274 -82 -95 -1 -170 9
-170 22 0 4 41 20 90 35 113 37 226 109 280 181 22 29 53 86 70 127 52 126
119 208 189 229 40 12 52 11 97 -9z m1452 -1575 c39 -20 63 -50 72 -90 7 -33
5 -38 -31 -70 -41 -38 -113 -86 -128 -86 -5 0 -2 19 6 43 17 47 22 148 10 190
-7 24 -5 27 18 27 14 0 38 -6 53 -14z"/>
</g>
</svg>
