<svg width="255" height="225" viewBox="0 0 255 225" fill="none" xmlns="http://www.w3.org/2000/svg">
<path d="M241.042 116.172C241.042 116.172 264.9 146.14 203.454 185.36C142.006 224.578 56.3402 237.554 39.293 195.32C22.2458 153.085 38.162 165.591 103.66 158.362C169.157 151.133 212.767 85.5384 223.305 92.6876C233.838 99.839 241.042 116.172 241.042 116.172" fill="#F9A332"/>
<path d="M92.1914 215.969C73.7001 215.969 58.018 211.767 48.0107 202.472C52.4382 200.459 55.9434 198.415 58.8722 196.709C62.2104 194.763 64.9143 193.187 66.5936 193.187C66.7733 193.187 66.9417 193.204 67.0975 193.242C67.9506 193.449 68.849 194.339 69.8435 195.963C72.7215 200.659 76.6505 203.227 80.948 203.227C81.1208 203.227 81.2938 203.222 81.4678 203.215C86.0171 203.003 90.2128 199.82 92.6919 194.703C94.1621 191.668 96.082 189.825 98.56 189.067C99.4787 188.786 100.504 188.646 101.63 188.646C105.767 188.646 111.293 190.535 118.113 194.292C118.14 194.307 118.163 194.32 118.189 194.334C121.025 195.957 124.206 196.94 127.964 197.034C128.272 197.043 128.575 197.046 128.874 197.046C139.269 197.046 144.174 192.467 147.138 189.701C147.91 188.98 149.077 187.892 149.47 187.861C149.474 187.861 149.819 187.91 150.601 188.664C147.113 192.6 139.949 200.23 129.004 200.23C124.308 200.23 118.916 198.823 112.822 195.12C110.144 193.492 107.402 192.813 104.925 192.813C97.8504 192.813 92.9293 198.36 97.8188 203.212C99.829 205.207 103.868 205.9 108.511 205.9C116.015 205.9 125.095 204.088 129.723 203.031C139.014 200.845 148.485 197.942 157.897 194.397C159.618 195.135 161.379 195.525 163.042 195.525C164.688 195.525 166.238 195.143 167.56 194.338C168.687 193.652 170.486 192.103 170.948 189.05C182.159 184.084 193.131 178.238 203.453 171.65C227.431 156.345 238.418 142.452 242.902 131.195C242.925 132.968 242.785 134.896 242.413 136.969C241.808 140.345 240.637 143.763 238.918 147.21C232.942 156.844 222.145 167.917 203.453 179.848C168.507 202.153 125.726 215.969 92.1914 215.969ZM168.993 179.586C168.884 179.348 168.769 179.108 168.65 178.863C168.263 178.073 167.911 177.24 167.597 176.368C167.652 176.368 167.702 176.368 167.756 176.368C179.706 176.368 184.253 170.676 189.762 163.782C191.709 161.344 193.721 158.824 196.304 156.169C200.962 151.378 208.094 151.086 214.992 150.804C219.529 150.619 223.877 150.441 227.184 148.867C219.146 156.554 208.565 148.86 202.234 158.515C195.032 169.497 188.63 177.203 175.029 178.744C172.818 178.995 170.816 179.272 168.993 179.586M232.72 140.051C232.754 139.458 232.754 138.838 232.725 138.189C232.484 132.962 232.455 129.394 233.045 127.766C233.362 126.886 233.775 126.654 235.954 125.74C237.387 125.138 239.223 124.366 241.515 122.988C241.846 123.957 242.151 125.053 242.394 126.27C233.406 128.349 236.91 130.462 232.72 140.051Z" fill="#BF6700"/>
<path d="M221.385 94.7516C220.763 94.7516 219.22 95.095 215.847 97.3753C211.916 100.034 206.803 104.424 200.881 109.505C179.188 128.124 146.404 156.263 103.967 160.946C88.4502 162.659 75.7479 163.268 65.5408 163.757C49.7841 164.514 39.3744 165.012 36.64 169.076C34.0228 172.963 36.8151 182.002 41.8108 194.378C45.916 204.55 54.4476 211.679 67.1679 215.569C100.104 225.638 156.791 212.023 201.961 183.192C225.723 168.026 239.711 152.042 242.414 136.968C244.531 125.157 239.122 118.043 238.891 117.747C238.759 117.578 238.641 117.385 238.556 117.191C238.462 116.978 231.5 101.434 221.748 94.8153C221.743 94.8133 221.645 94.7516 221.385 94.7516M92.2393 224.11C82.3324 224.111 73.3557 222.918 65.534 220.526C51.1784 216.138 41.5033 207.974 36.7766 196.263C30.7288 181.282 28.1942 172.062 32.1076 166.246C36.346 159.949 46.6201 159.456 65.2718 158.563C75.4022 158.076 88.0085 157.472 103.353 155.779C144.09 151.283 176.105 123.804 197.29 105.623C211.457 93.4623 219.258 86.7631 224.858 90.563C235.257 97.6221 242.362 112.596 243.404 114.884C244.6 116.54 249.993 124.863 247.77 137.653C244.852 154.474 230.441 171.254 204.946 187.528C182.764 201.686 156.756 212.834 131.714 218.918C117.478 222.375 104.183 224.11 92.2393 224.11Z" fill="#6D184E"/>
<path d="M28.0091 168.725C28.0091 168.725 12.4072 166.414 11.0068 176.623C9.60688 186.834 26.809 182.789 26.6091 190.688C26.409 198.587 26.209 208.99 43.8121 201.862C61.4142 194.734 66.2145 185.7 71.816 194.842C77.4162 203.982 86.4179 202.44 90.6179 193.77C94.8193 185.101 103.076 183.471 119.252 192.378C127.906 197.143 132.602 190.354 138.478 183.564C143.581 177.665 149.575 171.766 159.829 173.445C181.882 177.058 182.833 166.799 194.633 154.661C206.435 142.524 231.239 155.817 230.439 138.284C229.639 120.753 231.539 127.353 242.489 119.694C253.442 112.036 253.291 94.1185 231.838 95.7092C210.385 97.2978 157.029 171.422 28.0091 168.725" fill="#48C75A"/>
<path d="M230.622 123.617C231.431 120.378 235.296 118.407 243.315 112.398C244.73 111.335 246.147 109.572 247.338 107.8C247.046 111.478 244.768 115.377 241.145 117.911C238.139 120.011 235.914 120.946 234.124 121.697C232.65 122.315 231.503 122.897 230.622 123.617" fill="#B6E9BD"/>
<path d="M174.383 171.127C181.447 167.439 184.811 159.632 192.646 150.996C202.519 140.112 220.9 147.068 228.02 140.984C227.81 142.186 227.38 143.123 226.718 143.816C224.642 145.995 219.86 146.192 214.797 146.398C207.345 146.702 198.898 147.049 192.962 153.154C190.23 155.964 188.054 158.689 186.134 161.092C182.227 165.981 179.365 169.566 174.383 171.127Z" fill="#B6E9BD"/>
<path d="M34.1304 202.041C32.8885 202.041 31.8941 201.804 31.1686 201.326C28.6714 199.686 28.7967 194.727 28.8974 190.742C29.0329 185.413 23.7695 183.836 19.9274 182.686C14.8474 181.164 12.8234 180.216 13.2766 176.913C13.5189 175.147 14.3049 173.805 15.6798 172.808C17.4979 171.491 20.1386 170.947 22.5435 170.772C29.3596 180.969 39.7759 186.638 51.9471 186.638C53.4897 186.638 55.0626 186.546 56.6571 186.362C71.7356 184.376 86.9002 181.276 102.037 177.095C102.626 177.87 103.206 178.638 103.778 179.398C105.314 181.434 106.803 183.411 108.309 185.257C105.875 184.576 103.648 184.238 101.615 184.238C100.017 184.238 98.5382 184.447 97.1755 184.865C93.4611 186 90.557 188.682 88.5446 192.838C86.7963 196.446 84.0684 198.678 81.2481 198.81C81.1678 198.813 81.0888 198.814 81.0085 198.814C78.3677 198.814 75.8151 197.029 73.7878 193.721C72.1165 190.993 70.3458 189.481 68.2158 188.965C67.6768 188.835 67.1378 188.774 66.5943 188.774C63.6437 188.774 60.5465 190.577 56.5021 192.935C53.0071 194.972 48.6578 197.508 42.9241 199.829C39.2956 201.299 36.326 202.041 34.1304 202.041M167.969 171.995C167.465 171.995 166.944 171.983 166.405 171.958C165.353 166.503 165.534 160.061 167.197 153.331C186.875 144.565 205.235 134.278 222.016 122.601C230.162 116.734 234.916 108.79 235.997 99.8435C236.135 99.8157 236.269 99.7899 236.405 99.7641C237.578 106.462 236.396 115.205 227.037 123.452C208.235 140.019 187.031 144.45 177.429 153.891C171.644 159.58 171.016 166.874 171.43 171.775C170.372 171.92 169.225 171.995 167.969 171.995" fill="#539256"/>
<path d="M24.4627 170.704C21.6614 170.704 18.0002 171.127 15.6792 172.808C14.3045 173.805 13.5183 175.147 13.2759 176.914C12.823 180.217 14.8467 181.165 19.9269 182.686C23.7688 183.836 29.0323 185.414 28.8967 190.742C28.7962 194.728 28.6706 199.686 31.168 201.326C33.1782 202.648 37.2429 202.13 42.9233 199.83C48.657 197.508 53.0062 194.973 56.5014 192.935C61.2904 190.143 64.7527 188.128 68.2151 188.966C70.3451 189.482 72.1157 190.994 73.787 193.721C75.8752 197.129 78.5216 198.921 81.2472 198.81C84.0677 198.678 86.7956 196.446 88.5437 192.838C90.5562 188.683 93.4602 186 97.1747 184.865C102.816 183.137 110.409 184.971 120.387 190.465C126.4 193.775 129.648 190.444 135.34 183.764C140.855 177.287 147.718 169.225 160.212 171.272C175.942 173.851 179.561 169.318 186.133 161.092C188.053 158.689 190.229 155.965 192.962 153.155C198.897 147.049 207.345 146.703 214.797 146.398C219.859 146.191 224.641 145.996 226.716 143.817C227.796 142.683 228.267 140.904 228.15 138.383C227.587 126.031 228.256 124.159 234.125 121.697C235.913 120.945 238.141 120.011 241.145 117.91C246.103 114.441 248.543 108.419 246.817 103.901C245.12 99.4533 239.864 97.322 232.013 97.9078C226.757 98.2962 218.16 104.431 207.274 112.198C191.801 123.239 170.608 138.362 141.409 150.543C106.942 164.923 68.7653 171.785 27.9589 170.93C27.8605 170.927 27.7622 170.919 27.6638 170.906C26.9598 170.802 25.8107 170.704 24.4627 170.704M34.1071 206.441C31.9115 206.441 30.0799 205.95 28.5882 204.969C24.0333 201.977 24.1924 195.689 24.3203 190.634C24.3632 188.925 22.9212 188.201 18.5664 186.897C14.2527 185.605 7.73373 183.652 8.73729 176.336C9.14364 173.372 10.5581 170.996 12.9405 169.275C18.2974 165.406 26.8718 166.35 28.1961 166.524C120.79 168.418 173.216 131.01 204.55 108.656C216.92 99.8293 225.092 93.9982 231.661 93.5101C245.765 92.4693 249.964 99.3661 251.116 102.378C253.562 108.785 250.499 116.818 243.835 121.477C240.425 123.862 237.841 124.946 235.953 125.74C233.775 126.654 233.363 126.887 233.044 127.767C232.455 129.394 232.485 132.961 232.725 138.189C232.895 141.941 232.035 144.757 230.091 146.798C226.733 150.324 221.028 150.557 214.991 150.804C208.094 151.086 200.961 151.378 196.305 156.168C193.721 158.824 191.709 161.344 189.761 163.781C183.129 172.083 177.89 178.641 159.442 175.62C149.571 174.002 144.136 180.385 138.877 186.56C133.671 192.676 127.765 199.607 118.113 194.292C109.433 189.512 102.854 187.756 98.56 189.067C96.0818 189.825 94.162 191.668 92.6919 194.703C90.2127 199.82 86.017 203.003 81.4676 203.215C76.9681 203.43 72.8378 200.849 69.8432 195.963C68.8489 194.339 67.9506 193.449 67.0974 193.242C65.486 192.854 62.5672 194.554 58.8721 196.708C55.2493 198.82 50.7407 201.448 44.6986 203.895C40.5029 205.594 36.9921 206.441 34.1071 206.441" fill="#6D184E"/>
<path d="M195.069 59.2936C192.287 60.3654 189.896 62.0564 187.933 64.2218C175.987 72.143 149.964 88.0926 116.947 100.66C84.0503 113.504 53.7877 119.253 39.4662 121.459C36.4942 121.199 33.5527 121.564 30.7708 122.636C18.0809 127.528 13.5187 145.272 20.5816 162.265C27.6441 179.258 41.672 185.873 56.3471 184.177C89.003 179.877 118.19 170.82 142.061 161.084C166.314 152.267 193.929 139.425 220.644 120.835C232.483 112.311 237.897 98.201 230.835 81.2055C223.772 64.2119 207.759 54.4031 195.069 59.2936" fill="#DB2839"/>
<path d="M51.8546 182.237C38.7557 182.237 28.2705 174.834 22.7063 161.446C22.2825 160.426 21.9007 159.4 21.5605 158.37C22.4328 158.08 23.3279 157.791 24.2397 157.514C23.5933 160.357 23.4838 163.279 25.1324 165.693C26.7732 168.095 29.7382 169.458 34.1962 169.862C34.8493 169.921 35.4867 169.949 36.1092 169.949C45.3628 169.949 51.3179 163.702 55.7407 159.063C58.4494 156.222 61.0076 153.538 63.106 153.538C63.1219 153.538 63.1377 153.538 63.1524 153.538C64.3784 153.561 65.8304 154.517 67.469 156.376C73.2748 162.973 80.8685 166.56 88.9638 166.559C89.3276 166.559 89.6936 166.552 90.0599 166.537C91.0384 166.498 92.0068 166.406 92.9629 166.262C95.2069 168.597 97.2229 170.969 99.0987 173.316C84.7353 177.207 70.3573 180.107 56.074 181.989C54.64 182.154 53.2332 182.237 51.8546 182.237M62.3749 158.986C62.019 158.986 61.7049 159.168 61.4134 159.575C60.2573 161.189 57.7882 163.445 55.1892 165.611C53.4785 167.037 53.9891 169.677 56.0944 170.474C59.8584 171.899 63.871 172.586 67.9876 172.586C69.4464 172.586 70.9188 172.5 72.3969 172.33C72.4419 172.323 72.4872 172.317 72.5324 172.311C75.389 171.933 76.058 168.249 73.5188 166.935C67.0474 163.584 64.1727 158.986 62.3749 158.986M168.929 147.676C171.676 140.191 176.28 132.598 183.074 125.817C184.118 125.901 185.178 125.952 186.243 125.952C187.17 125.952 188.099 125.913 189.018 125.823C186.635 128.457 184.554 131.022 182.803 133.333C181.282 135.341 182.94 137.878 185.154 137.878C185.572 137.878 186.013 137.787 186.455 137.582C192.794 134.662 199.234 131.467 205.72 127.975C194.107 135.179 181.815 141.761 168.929 147.676ZM203.886 112.562C204.021 112.105 204.138 111.655 204.239 111.218C215.067 105.749 224.096 102.694 231.265 100.906C231.168 101.451 231.055 101.99 230.926 102.525C220.717 103.12 211.606 107.2 203.886 112.562Z" fill="#A92142"/>
<path d="M37.6367 123.582C35.5361 123.582 33.5191 123.95 31.6216 124.682C26.1864 126.778 22.2337 131.665 20.4912 138.442C18.6808 145.483 19.4674 153.651 22.7071 161.445C28.8565 176.241 41.0165 183.727 56.0749 181.988C84.3521 178.264 112.994 170.545 141.169 159.054C141.196 159.042 141.223 159.031 141.252 159.021C169.879 148.615 196.139 135.165 219.305 119.049C231.419 110.323 234.858 96.821 228.708 82.0249C222.128 66.1869 207.416 56.9064 195.919 61.342L195.07 59.2939L195.919 61.342C193.538 62.2583 191.432 63.7155 189.656 65.6718C189.53 65.8096 189.389 65.9313 189.231 66.0371C176.698 74.3474 150.751 90.1636 117.79 102.71C84.9623 115.528 54.8523 121.323 39.8279 123.636C39.6391 123.664 39.4469 123.67 39.2583 123.654C38.7124 123.606 38.1723 123.582 37.6367 123.582M51.9471 186.637C36.9948 186.638 24.6904 178.083 18.4561 163.084C14.8639 154.439 14.0081 145.311 16.0469 137.382C18.1531 129.19 23.0799 123.225 29.92 120.588C32.8906 119.442 36.0727 118.991 39.3802 119.239C54.3032 116.927 83.8618 111.198 116.089 98.6156C148.444 86.3009 173.946 70.8021 186.404 62.5577C188.62 60.1782 191.248 58.3936 194.218 57.2457C208.059 51.9118 225.44 62.2902 232.959 80.386C239.836 96.9328 235.745 112.713 222.016 122.602C198.506 138.959 171.902 152.589 142.91 163.131C114.379 174.766 85.359 182.582 56.6569 186.362C55.0624 186.546 53.4895 186.637 51.9471 186.637Z" fill="#6D184E"/>
<path d="M24.8089 141.176C24.8089 141.176 9.40663 147.148 5.60633 157.359C3.34848 163.424 9.84299 160.041 19.7228 156.657C26.4757 154.344 34.8093 152.031 43.0109 152.735C50.4995 153.378 53.3708 151.215 55.4556 149.053C58.9948 145.381 60.2659 141.707 78.0161 151.771C106.221 167.762 108.821 194.349 128.023 194.83C135.714 195.024 140.131 192.636 143.129 190.249C147.613 186.675 148.91 183.102 153.226 188.184C160.428 196.66 174.079 195.119 166.578 179.803C159.077 164.486 163.828 130.771 197.834 112.084C231.837 93.397 250.04 97.442 251.641 94.746C253.242 92.0479 245.639 78.1757 221.436 77.7917C197.233 77.4057 136.425 136.938 24.8089 141.176Z" fill="#FCAF15"/>
<path d="M128.834 192.635C128.587 192.635 128.338 192.632 128.083 192.626C119.242 192.404 114.31 185.863 107.483 176.807C104.715 173.135 101.653 169.073 97.9346 165.004C102.727 163.275 106.955 160.161 110.083 155.943C113.042 151.954 115.604 150.43 118.77 150.43C121.839 150.43 125.473 151.863 130.58 153.879C133.808 155.151 137.465 156.594 141.723 157.916C144.496 158.775 147.217 159.198 149.815 159.198C154.435 159.198 158.668 157.86 162.115 155.256C161.646 156.104 161.229 156.958 160.859 157.813C156.716 159.949 152.643 160.743 148.726 160.743C143.08 160.743 137.761 159.093 133.039 157.443C128.316 155.792 124.19 154.142 120.926 154.142C119.109 154.142 117.559 154.653 116.323 155.962C111.91 160.627 107.557 165.287 104.897 166.723C112.797 177.08 117.622 185.792 128.502 186.064C128.768 186.07 129.028 186.074 129.286 186.074C136.629 186.074 140.793 183.413 143.6 180.752C146.405 178.09 147.854 175.43 149.766 175.43C150.726 175.43 151.803 176.101 153.227 177.777C155.795 180.8 159.182 182.546 162.139 182.847C163.449 186.629 163.228 189.328 162.097 191.036C159.863 190.715 157.137 189.305 154.999 186.788C153.739 185.303 152.001 183.584 149.733 183.459C149.647 183.454 149.559 183.451 149.472 183.451C147.263 183.451 145.653 184.947 143.954 186.533C141.176 189.127 137.397 192.635 128.834 192.635M7.65527 158.401C7.68607 158.31 7.72103 158.21 7.76129 158.101C9.14745 154.378 12.3496 151.228 15.6686 148.8C17.7501 148.758 19.9061 148.601 22.0407 148.444C23.3616 148.349 24.6092 148.256 25.833 148.193C25.9538 148.186 26.0624 148.183 26.1596 148.183C26.4736 148.183 26.6725 148.213 26.7856 148.239C26.8974 148.993 26.277 150.944 25.7663 152.472C21.5728 153.597 17.697 155.002 14.3589 156.214C12.017 157.063 9.22765 158.075 7.65527 158.401" fill="#D18126"/>
<path d="M43.29 152.754C55.5467 153.705 55.1819 147.004 59.7849 145.536C51.071 143.654 53.3948 151.791 43.29 152.754Z" fill="#F8CE36"/>
<path d="M5.37598 160.158C7.32203 163.054 22.1263 153.511 37.7853 152.667C24.975 151.917 12.0056 158.231 5.37598 160.158Z" fill="#F8CE36"/>
<path d="M163.041 182.896C162.746 182.896 162.443 182.88 162.137 182.849C161.809 181.901 161.384 180.887 160.852 179.803C158.231 174.449 157.284 166.086 160.859 157.814C161.167 157.653 161.477 157.487 161.786 157.313C160.515 166.027 161.423 174.443 164.508 180.744C164.81 181.36 165.078 181.959 165.309 182.538C164.619 182.777 163.852 182.896 163.041 182.896Z" fill="#FED78A"/>
<path d="M163.051 191.107C162.746 191.107 162.426 191.084 162.096 191.037C163.225 189.329 163.448 186.629 162.136 182.849C162.442 182.88 162.744 182.897 163.04 182.897C163.851 182.897 164.618 182.778 165.309 182.537C166.913 186.526 166.868 189.543 165.116 190.611C164.569 190.941 163.861 191.107 163.051 191.107M160.857 157.813C161.226 156.959 161.644 156.105 162.112 155.256C162.117 155.252 162.122 155.248 162.127 155.245C162 155.936 161.886 156.624 161.785 157.313C161.477 157.487 161.166 157.654 160.857 157.813Z" fill="#E8C093"/>
<path d="M169.996 134.951C169.77 132.868 169.312 130.733 168.614 128.575C167.592 125.413 168.185 124.704 168.212 124.675C168.479 124.378 169.19 124.266 170.132 124.266C171.931 124.266 174.569 124.675 176.544 124.981C176.828 125.025 177.117 125.068 177.412 125.114C174.405 128.405 171.97 131.731 169.996 134.951" fill="#D18126"/>
<path d="M61.6467 143.063C65.2085 143.063 70.4212 144.907 79.1775 149.872C93.1478 157.792 101.096 168.336 107.483 176.808C114.309 185.863 119.241 192.404 128.082 192.627C137.179 192.837 141.096 189.202 143.953 186.533C145.718 184.886 147.389 183.335 149.734 183.459C152 183.585 153.739 185.305 154.999 186.788C158.292 190.664 162.974 191.913 165.116 190.61C167.122 189.388 166.891 185.608 164.507 180.744C160.149 171.843 160.136 158.719 164.475 146.495C168.22 135.945 176.852 121.076 196.698 110.168C221.19 96.7106 237.782 94.8297 245.755 93.9269C247.134 93.7705 248.658 93.5974 249.496 93.4139C249.325 92.6612 248.721 91.1536 246.991 89.2228C244.582 86.533 237.264 80.2483 221.397 79.996C214.034 79.8584 202.391 86.093 186.263 94.6963C152.107 112.908 100.529 140.413 25.3185 143.363C23.0945 144.296 10.8674 149.757 7.76091 158.102C7.72064 158.21 7.68557 158.31 7.65504 158.402C9.22722 158.076 12.0165 157.064 14.3588 156.214C22.0256 153.432 32.5301 149.626 43.2143 150.538C50.47 151.164 52.4191 149.043 54.4815 146.8C56.4578 144.649 58.3437 143.063 61.6467 143.063M128.875 197.046C128.576 197.046 128.271 197.042 127.963 197.034C116.863 196.756 110.799 188.712 103.778 179.398C97.3207 170.834 90.003 161.127 76.8554 153.672C69.7035 149.617 64.8379 147.586 61.9812 147.465C60.1348 147.397 59.4387 148.058 57.9088 149.722C55.5708 152.266 52.3661 155.747 42.8086 154.931C33.1616 154.101 23.2268 157.708 15.9723 160.34C9.58032 162.659 6.0584 163.938 3.91209 161.904C2.11627 160.202 3.1208 157.501 3.45117 156.615C7.55134 145.599 23.2867 139.389 23.9533 139.131C24.1975 139.037 24.4562 138.983 24.7184 138.972C99.0678 136.149 150.206 108.882 184.044 90.8367C200.796 81.906 212.9 75.4566 221.473 75.588C238.643 75.8612 248.829 82.8402 252.635 89.2812C253.544 90.8221 254.885 93.7225 253.629 95.839C252.588 97.5926 250.483 97.8303 246.29 98.3057C238.615 99.1752 222.649 100.985 198.969 114.001C167.469 131.309 161.048 163.339 168.649 178.863C173.693 189.164 169.569 193.117 167.56 194.338C163.102 197.051 156.027 194.961 151.455 189.58C150.065 187.945 149.476 187.862 149.47 187.861C149.078 187.892 147.911 188.98 147.14 189.7C144.174 192.467 139.271 197.046 128.875 197.046" fill="#6D184E"/>
<path d="M145.802 169.617C145.802 169.617 138.821 182.12 128.502 180.597C120.673 179.44 133.755 180.912 137.153 171.784C141.077 161.234 147.822 166.726 145.802 169.617" fill="#F8CE36"/>
<path d="M34.41 118.538C34.41 118.538 6.80593 119.984 3.50545 134.721C0.205181 149.46 14.6071 146.57 25.709 145.992C36.8102 145.414 15.2068 165.932 34.41 167.666C42.4377 168.391 47.7903 163.964 52.1577 159.538C58.2371 153.377 62.4047 147.215 69.2151 154.951C80.9163 168.244 99.2188 166.8 108.22 154.662C117.222 142.525 124.722 150.327 142.425 155.818C160.128 161.309 172.13 146.859 166.429 129.231C163.598 120.479 169.716 121.7 177.659 122.919C185.717 124.156 195.652 125.393 200.032 116.227C208.733 98.0203 190.131 94.8423 212.335 90.5078C234.538 86.1714 244.139 84.7279 240.539 73.0246C236.939 61.3192 228.537 52.6504 200.332 64.2102C172.13 75.768 146.625 126.342 34.41 118.538" fill="#48C75A"/>
<path d="M29.9771 154.262C31.167 150.729 32.1782 147.678 30.429 145.49C29.5206 144.35 28.0774 143.776 26.1351 143.776C25.9566 143.776 25.7734 143.78 25.5858 143.79C24.3124 143.856 22.9822 143.953 21.6952 144.048C19.3753 144.217 16.9357 144.395 14.6746 144.395C14.4137 144.395 14.1546 144.393 13.8989 144.389C15.443 139.072 18.3144 133.886 13.1837 133.886C13.0421 133.886 12.8942 133.888 12.7401 133.897C10.5563 134.01 8.24564 134.212 5.9668 134.353C7.14762 130.558 10.351 127.81 14.2078 125.819C14.649 127.987 15.1605 130.129 15.7402 132.246C24.9067 136.715 34.7909 139.755 45.1983 141.457C41.0353 144.9 36.6994 151.42 29.9771 154.262M76.0302 152.258C73.4437 152.258 70.8232 151.845 68.2605 150.993C66.8919 149.984 65.519 149.39 64.1188 149.196C61.3097 147.676 58.6396 145.573 56.2461 142.854C56.2135 142.818 56.1806 142.781 56.1478 142.744C59.4147 142.982 62.7244 143.103 66.0682 143.103C76.2788 143.103 86.823 141.999 97.5511 139.86C96.7918 140.623 96.0268 141.521 95.2515 142.567C90.5982 148.843 83.4588 152.258 76.0302 152.258M136.844 144.904C134.529 144.904 132.055 144.527 129.458 143.722C121.31 141.195 115.322 138.178 110.356 136.841C118.405 134.656 126.514 131.916 134.625 128.652C134.658 128.639 134.692 128.625 134.726 128.611C134.734 128.608 134.744 128.604 134.754 128.6C134.781 128.59 134.801 128.582 134.827 128.571C134.837 128.567 134.847 128.563 134.859 128.559C134.883 128.549 134.909 128.538 134.934 128.528C134.942 128.524 134.95 128.522 134.958 128.518C134.99 128.505 135.024 128.491 135.057 128.479L135.059 128.478C135.095 128.464 135.131 128.448 135.165 128.435C135.167 128.433 135.169 128.433 135.171 128.433C135.204 128.419 135.234 128.406 135.268 128.392C135.272 128.39 135.28 128.388 135.286 128.384C135.314 128.373 135.345 128.361 135.375 128.349C135.379 128.347 135.385 128.346 135.389 128.344C135.421 128.33 135.455 128.316 135.49 128.303L135.492 128.301C135.564 128.272 135.633 128.243 135.705 128.214C135.707 128.214 135.711 128.212 135.713 128.212C135.746 128.198 135.778 128.184 135.81 128.171C135.814 128.169 135.816 128.169 135.82 128.167C135.963 128.109 136.104 128.053 136.245 127.992L136.249 127.99C136.572 127.859 136.892 127.727 137.212 127.593L137.218 127.591C137.359 127.533 137.5 127.472 137.643 127.414L137.647 127.41C137.789 127.352 137.928 127.294 138.071 127.236C138.075 127.232 138.075 127.232 138.079 127.23C138.22 127.17 138.357 127.113 138.498 127.053C138.502 127.051 138.504 127.051 138.508 127.049C138.538 127.036 138.572 127.022 138.602 127.009C138.609 127.007 138.609 127.007 138.613 127.005C138.715 126.962 138.822 126.915 138.925 126.873C138.929 126.871 138.933 126.869 138.937 126.865C138.967 126.853 138.997 126.842 139.026 126.828C139.03 126.826 139.038 126.824 139.042 126.82C139.078 126.807 139.106 126.793 139.14 126.78H139.142C139.211 126.749 139.281 126.719 139.35 126.69C139.356 126.686 139.362 126.685 139.368 126.683C139.394 126.671 139.424 126.657 139.451 126.648C139.459 126.644 139.465 126.642 139.471 126.638C139.497 126.626 139.529 126.615 139.555 126.603C139.561 126.599 139.568 126.597 139.576 126.593C139.642 126.566 139.707 126.537 139.773 126.508C139.781 126.504 139.793 126.498 139.803 126.496C139.825 126.487 139.85 126.475 139.874 126.465C139.884 126.459 139.894 126.457 139.904 126.452C139.928 126.442 139.948 126.432 139.972 126.423C139.985 126.417 139.995 126.413 140.005 126.409C140.031 126.397 140.059 126.386 140.085 126.374C140.089 126.372 140.097 126.368 140.103 126.366C140.136 126.353 140.17 126.337 140.202 126.324C140.21 126.32 140.218 126.316 140.226 126.314C140.248 126.302 140.275 126.293 140.299 126.283C140.309 126.277 140.323 126.271 140.335 126.265C140.355 126.258 140.373 126.248 140.394 126.24C140.41 126.234 140.422 126.229 140.438 126.221C140.456 126.213 140.472 126.207 140.49 126.199C140.504 126.192 140.52 126.186 140.535 126.18C140.551 126.172 140.567 126.164 140.583 126.159C140.613 126.145 140.647 126.13 140.678 126.118C140.69 126.112 140.706 126.104 140.718 126.099C140.738 126.091 140.754 126.083 140.774 126.075C140.786 126.069 140.798 126.064 140.811 126.058C140.831 126.05 140.851 126.04 140.869 126.033C140.881 126.029 140.893 126.023 140.903 126.019C140.925 126.007 140.946 126 140.968 125.99C140.97 125.99 140.972 125.988 140.974 125.988C141.054 125.951 141.137 125.916 141.22 125.879C141.222 125.879 141.226 125.877 141.23 125.875C141.256 125.864 141.284 125.852 141.31 125.84L141.312 125.838C145.72 123.902 150.01 121.849 154.168 119.685C157.394 133.587 149.534 144.904 136.844 144.904M173.392 111.677C171.813 111.677 170.209 111.553 168.63 111.37C176.191 106.572 183.18 101.362 189.498 95.773C189.293 98.1462 188.61 100.902 187.066 104.131C184.195 110.136 178.941 111.677 173.392 111.677M207.123 76.8923C210.558 72.3438 213.598 67.6207 216.205 62.7385C216.036 62.3873 215.865 62.0361 215.693 61.6868C218.159 61.2114 220.424 60.9727 222.483 60.9727C224.431 60.9727 226.196 61.1862 227.77 61.615C230.399 71.2746 223.39 73.6284 207.123 76.8923Z" fill="#539256"/>
<path d="M88.9655 162.15C88.893 162.15 88.8192 162.149 88.7441 162.149C92.8015 160.435 96.4368 157.648 99.228 153.885C102.933 148.888 106.4 147.084 110.353 147.084C111.216 147.084 112.106 147.17 113.025 147.329C110.784 148.452 108.586 150.377 106.356 153.381C102.427 158.68 96.4174 161.87 89.8692 162.132C89.5675 162.144 89.2672 162.15 88.9655 162.15" fill="#A4E3AD"/>
<path d="M151.222 154.756C160.139 150.794 163.564 139.955 160.91 126.936C159.858 121.774 162.191 120.489 166.154 120.489C166.299 120.489 166.444 120.489 166.59 120.493C165.887 120.789 165.271 121.212 164.752 121.788C162.689 124.079 163.473 127.507 164.243 129.886C166.882 138.044 165.469 146.021 160.557 150.707C158.025 153.122 154.837 154.485 151.222 154.756ZM186.415 121.539C185.918 121.539 185.409 121.527 184.892 121.503C189.604 120.829 193.894 118.654 196.521 113.155C205.742 93.8624 186.03 90.4935 209.559 85.8994C225.713 82.7457 235.567 81.0344 238.925 76.255C239.16 78.2373 238.712 79.2992 238.292 79.9686C235.992 83.6542 227.258 85.3536 214.041 87.9255L211.879 88.3459C204.34 89.8182 200.974 91.2267 199.467 93.5417C198.077 95.6714 198.67 97.9106 199.295 100.283C200.222 103.788 201.374 108.149 197.955 115.305C195.656 120.112 191.615 121.539 186.415 121.539" fill="#A4E3AD"/>
<path d="M26.134 143.777C28.0766 143.777 29.5196 144.35 30.4281 145.49C32.1896 147.695 31.1524 150.774 29.9512 154.339C28.8529 157.597 27.6077 161.292 28.958 163.27C29.775 164.465 31.6802 165.205 34.6238 165.471C42.7179 166.2 47.8458 160.825 52.3692 156.079C55.8157 152.464 59.0612 149.029 63.2443 149.129C65.8773 149.179 68.4017 150.617 70.9612 153.525C76.0957 159.357 82.8114 162.417 89.8693 162.132C96.4177 161.869 102.427 158.68 106.357 153.381C114.29 142.685 121.85 145.67 132.315 149.798C135.466 151.041 139.035 152.45 143.128 153.72C150.073 155.872 156.262 154.804 160.557 150.707C165.468 146.022 166.88 138.044 164.243 129.886C163.473 127.508 162.689 124.08 164.753 121.787C167.199 119.069 171.865 119.79 177.27 120.627C186.839 122.106 194.441 122.656 197.953 115.304C201.375 108.149 200.221 103.786 199.295 100.282C198.668 97.9118 198.076 95.6708 199.465 93.541C200.974 91.2272 204.339 89.8188 211.88 88.3457L214.041 87.9253C227.258 85.3529 235.991 83.6555 238.292 79.9697C238.867 79.0503 239.496 77.3973 238.345 73.6508C236.53 67.7523 233.842 64.1675 229.883 62.3711C223.83 59.6249 214.188 60.9262 201.23 66.2388C194.548 68.9769 187.802 74.1702 179.993 80.1859C167.801 89.5702 152.63 101.254 129.869 109.786C103.255 119.762 72.0244 123.347 34.4012 120.748C32.3841 120.884 8.52731 122.755 5.74318 135.186C4.99019 138.551 5.23062 140.943 6.45861 142.299C8.88817 144.985 15.6918 144.488 21.6943 144.049C22.9815 143.954 24.3114 143.857 25.5849 143.791C25.7725 143.781 25.9555 143.777 26.134 143.777M36.1097 169.949C35.4872 169.949 34.8498 169.921 34.1966 169.862C29.7387 169.458 26.7737 168.095 25.1328 165.693C22.5747 161.946 24.2493 156.974 25.5963 152.977C26.125 151.407 26.9092 149.079 26.785 148.24C26.6359 148.206 26.3432 148.166 25.8323 148.194C24.6085 148.257 23.361 148.349 22.0401 148.445C14.6201 148.986 6.94558 149.548 3.00794 145.197C0.7477 142.702 0.178493 139.121 1.26802 134.257C4.89493 118.061 33.088 116.4 34.2858 116.337C34.3819 116.333 34.479 116.333 34.5751 116.341C118.161 122.149 152.244 95.9032 177.134 76.7405C185.205 70.5247 192.177 65.1556 199.438 62.1811C213.85 56.2745 224.447 55.0317 231.834 58.3821C237.058 60.7545 240.522 65.2062 242.734 72.398C243.984 76.4637 243.814 79.6827 242.215 82.243C238.873 87.5919 229.868 89.3439 214.947 92.2477L212.79 92.668C207.201 93.7592 204.025 94.8423 203.343 95.887C203.013 96.3902 203.278 97.4713 203.733 99.195C204.719 102.929 206.211 108.573 202.113 117.149C196.866 128.124 184.636 126.232 176.544 124.98C173.535 124.517 168.989 123.81 168.213 124.675C168.185 124.703 167.592 125.414 168.613 128.575C171.811 138.458 170.002 147.902 163.777 153.84C158.291 159.077 150.251 160.561 141.723 157.916C137.464 156.595 133.807 155.152 130.58 153.88C120.203 149.784 115.908 148.09 110.083 155.943C105.327 162.358 98.028 166.218 90.0604 166.537C81.5559 166.876 73.5363 163.269 67.4693 156.376C65.831 154.516 64.3789 153.562 63.1528 153.538C63.1381 153.538 63.1224 153.538 63.1064 153.538C61.0082 153.538 58.4498 156.222 55.7412 159.062C51.3183 163.702 45.3634 169.949 36.1097 169.949" fill="#6D184E"/>
<path d="M134.626 128.653C171.644 113.753 201.156 90.9367 216.203 62.7382C199.482 27.9181 163.166 3.61364 120.877 2.95681C62.1261 2.04622 13.248 47.5033 12.2236 104.088C12.0473 113.838 13.2846 123.279 15.7396 132.246C49.0384 148.481 91.8363 145.873 134.626 128.653Z" fill="#F9A332"/>
<path d="M135.439 4.13507H135.437H135.439ZM135.329 4.12018C135.326 4.12018 135.326 4.11806 135.324 4.11806C135.326 4.11806 135.326 4.12018 135.329 4.12018ZM135.271 4.11168C135.269 4.11168 135.271 4.11167 135.269 4.10954L135.271 4.11168ZM135.218 4.10317C135.216 4.10317 135.214 4.10317 135.209 4.10105C135.214 4.10317 135.216 4.10317 135.218 4.10317ZM135.158 4.09465H135.156H135.158ZM134.991 4.07126C134.988 4.06913 134.988 4.06914 134.986 4.06914C134.988 4.06914 134.988 4.06913 134.991 4.07126ZM134.715 4.03084C134.712 4.03084 134.71 4.03084 134.708 4.03084C134.71 4.03084 134.712 4.03084 134.715 4.03084ZM134.666 4.02446C134.659 4.02446 134.655 4.02234 134.651 4.02234C134.655 4.02234 134.659 4.02446 134.666 4.02446ZM134.611 4.01597C134.604 4.01597 134.598 4.01383 134.593 4.01383C134.6 4.01595 134.602 4.01597 134.611 4.01597ZM134.56 4.00957C134.549 4.00744 134.542 4.00746 134.531 4.00533C134.54 4.00746 134.551 4.00744 134.56 4.00957ZM134.505 4.00107C134.494 4.00107 134.485 3.99894 134.474 3.99681C134.485 3.99894 134.492 3.99895 134.505 4.00107ZM134.445 3.99256C134.434 3.99256 134.427 3.99044 134.416 3.99044C134.425 3.99044 134.434 3.99256 134.445 3.99256ZM134.386 3.98618C134.374 3.98405 134.37 3.98405 134.359 3.98192C134.368 3.98192 134.374 3.98405 134.386 3.98618ZM134.33 3.97766C134.319 3.97554 134.308 3.97555 134.297 3.97342C134.308 3.97555 134.317 3.97554 134.33 3.97766ZM134.271 3.96917C134.262 3.96917 134.251 3.96704 134.24 3.96491C134.253 3.96704 134.26 3.96917 134.271 3.96917ZM134.213 3.96065C134.204 3.96065 134.193 3.95853 134.185 3.95853C134.193 3.95853 134.204 3.96065 134.213 3.96065ZM134.154 3.95427C134.143 3.95215 134.136 3.95214 134.127 3.95002C134.136 3.95214 134.145 3.95215 134.154 3.95427ZM134.096 3.94576C134.085 3.94363 134.072 3.94365 134.061 3.94152C134.074 3.94365 134.083 3.94363 134.096 3.94576ZM134.039 3.93938C134.023 3.93513 134.01 3.93514 133.992 3.93088C134.01 3.93514 134.023 3.93513 134.039 3.93938ZM133.981 3.93088C133.962 3.92876 133.946 3.92662 133.926 3.92237C133.944 3.9245 133.964 3.92876 133.981 3.93088ZM133.913 3.92237C133.895 3.91811 133.882 3.91811 133.864 3.91385C133.88 3.91598 133.897 3.92024 133.913 3.92237ZM133.849 3.91385C133.836 3.91172 133.822 3.9096 133.805 3.90747C133.822 3.9096 133.833 3.91172 133.849 3.91385ZM133.787 3.90536C133.776 3.90323 133.761 3.90111 133.747 3.89898C133.763 3.90111 133.774 3.90323 133.787 3.90536ZM133.725 3.89684C133.712 3.89471 133.703 3.89258 133.69 3.89258C133.701 3.89258 133.714 3.89471 133.725 3.89684ZM133.668 3.88834C133.655 3.88622 133.643 3.88621 133.63 3.88409C133.643 3.88621 133.655 3.88622 133.668 3.88834ZM133.61 3.88195C133.597 3.87982 133.582 3.8777 133.571 3.87557C133.582 3.8777 133.599 3.87982 133.61 3.88195ZM133.555 3.87345C133.54 3.87132 133.526 3.87132 133.511 3.86919C133.526 3.87132 133.54 3.87132 133.555 3.87345ZM133.493 3.86707C133.48 3.86495 133.467 3.8628 133.451 3.86068C133.467 3.8628 133.48 3.86495 133.493 3.86707ZM133.436 3.85856C133.42 3.85643 133.407 3.85431 133.394 3.85218C133.407 3.85431 133.42 3.85643 133.436 3.85856ZM133.376 3.85004C133.361 3.85004 133.345 3.84793 133.332 3.8458C133.345 3.84793 133.363 3.85004 133.376 3.85004ZM133.319 3.84366C133.303 3.84154 133.29 3.83941 133.27 3.83729C133.288 3.83941 133.303 3.84154 133.319 3.84366ZM133.259 3.83517C133.239 3.83304 133.224 3.8309 133.204 3.82877C133.222 3.8309 133.242 3.83304 133.259 3.83517ZM133.204 3.82877C133.184 3.82664 133.164 3.82452 133.144 3.82239C133.164 3.82452 133.182 3.82664 133.204 3.82877ZM133.144 3.82239C133.023 3.80538 132.906 3.7905 132.784 3.77773C132.904 3.7905 133.023 3.80538 133.144 3.82239ZM132.78 3.77559C132.76 3.77347 132.745 3.77134 132.725 3.76922C132.74 3.77134 132.762 3.77347 132.78 3.77559ZM132.72 3.76922C132.7 3.76709 132.683 3.76497 132.663 3.76284C132.683 3.76497 132.703 3.76709 132.72 3.76922ZM132.663 3.76072C132.621 3.75647 132.583 3.7522 132.544 3.74795C132.583 3.7522 132.621 3.75647 132.663 3.76072ZM132.539 3.74795C132.522 3.74369 132.504 3.74158 132.482 3.73945C132.504 3.74158 132.519 3.74369 132.539 3.74795ZM132.482 3.73945C132.462 3.73732 132.444 3.73518 132.424 3.73305C132.442 3.73518 132.464 3.73732 132.482 3.73945ZM132.422 3.73305C129.152 3.34168 125.839 3.09282 122.487 2.99285C125.839 3.09282 129.154 3.34168 132.422 3.73305ZM122.484 2.99285C122.464 2.99285 122.445 2.99285 122.424 2.99285C122.444 2.99285 122.465 2.99285 122.484 2.99285ZM122.422 2.99285C122.402 2.99073 122.384 2.99073 122.363 2.99073C122.383 2.99073 122.403 2.99073 122.422 2.99285ZM122.361 2.99073C122.341 2.98861 122.324 2.98859 122.304 2.98859C122.32 2.98859 122.344 2.98861 122.361 2.99073ZM122.297 2.98859C122.281 2.98859 122.259 2.98648 122.244 2.98648C122.26 2.98648 122.28 2.98859 122.297 2.98859ZM122.235 2.98648C122.219 2.98648 122.197 2.98648 122.182 2.98436C122.198 2.98648 122.218 2.98648 122.235 2.98648ZM122.173 2.98436C122.153 2.98436 122.139 2.98436 122.118 2.98436C122.137 2.98436 122.154 2.98436 122.173 2.98436ZM122.114 2.98436C122.095 2.98223 122.075 2.98222 122.057 2.98222C122.074 2.98222 122.097 2.98223 122.114 2.98436ZM122.052 2.98222C121.928 2.97796 121.807 2.97585 121.684 2.97372C121.807 2.97585 121.928 2.97796 122.052 2.98222ZM121.676 2.97158C121.658 2.97158 121.639 2.97158 121.621 2.97158C121.641 2.97158 121.657 2.97158 121.676 2.97158ZM121.618 2.97158C121.596 2.97158 121.582 2.96946 121.562 2.96946C121.581 2.96946 121.598 2.97158 121.618 2.97158ZM121.55 2.96946C121.534 2.96946 121.517 2.96946 121.501 2.96946C121.518 2.96946 121.533 2.96946 121.55 2.96946ZM121.487 2.96946C121.472 2.96734 121.457 2.96732 121.441 2.96732C121.456 2.96732 121.473 2.96734 121.487 2.96946ZM121.425 2.96732C121.411 2.96732 121.396 2.96732 121.381 2.96732C121.395 2.96732 121.411 2.96732 121.425 2.96732ZM121.363 2.96521C121.35 2.96521 121.336 2.96521 121.324 2.96521C121.338 2.96521 121.349 2.96521 121.363 2.96521ZM121.3 2.96521C121.288 2.96521 121.275 2.96521 121.263 2.96309C121.275 2.96521 121.289 2.96521 121.3 2.96521ZM121.24 2.96309C121.228 2.96309 121.214 2.96309 121.202 2.96309C121.213 2.96309 121.228 2.96309 121.24 2.96309ZM121.18 2.96309C121.168 2.96309 121.154 2.96095 121.141 2.96095C121.155 2.96095 121.166 2.96309 121.18 2.96309ZM121.119 2.96095C121.106 2.96095 121.095 2.96095 121.083 2.96095C121.095 2.96095 121.107 2.96095 121.119 2.96095ZM121.058 2.96095C121.046 2.96095 121.033 2.96096 121.021 2.95883C121.032 2.96096 121.046 2.96095 121.058 2.96095ZM120.998 2.95883C120.982 2.95883 120.967 2.95883 120.952 2.95883C120.969 2.95883 120.981 2.95883 120.998 2.95883ZM120.938 2.95883C120.918 2.95883 120.899 2.95882 120.877 2.95669C120.897 2.95882 120.919 2.95883 120.938 2.95883ZM120.877 2.95669C120.824 2.95669 120.769 2.9567 120.716 2.95457C120.77 2.9567 120.823 2.95669 120.877 2.95669ZM118.321 2.94605C118.462 2.94605 118.602 2.94394 118.742 2.94394C118.757 2.94394 118.773 2.94394 118.789 2.94394C118.632 2.94606 118.478 2.94605 118.321 2.94605Z" fill="#FFF6AF"/>
<path d="M22.96 61.026C40.2195 26.9831 76.4122 3.41148 117.92 2.9563C118.054 2.95204 118.186 2.94991 118.32 2.94778C118.478 2.94778 118.631 2.94566 118.788 2.94566C118.8 2.94566 118.81 2.94566 118.821 2.94566C118.935 2.94566 119.049 2.94566 119.165 2.94566C119.68 2.94566 120.197 2.94991 120.715 2.9563C120.768 2.9563 120.823 2.95841 120.877 2.95841C120.898 2.95841 120.917 2.95843 120.938 2.96055C120.942 2.96055 120.946 2.96055 120.951 2.96055C120.966 2.96055 120.982 2.96055 120.997 2.96055C121.004 2.96055 121.012 2.96055 121.02 2.96055C121.033 2.96055 121.045 2.96055 121.057 2.96267C121.064 2.96267 121.074 2.96267 121.082 2.96267C121.095 2.96267 121.105 2.96267 121.118 2.96267C121.125 2.96267 121.133 2.96267 121.14 2.96267C121.153 2.96267 121.167 2.96268 121.179 2.96481C121.187 2.96481 121.193 2.96481 121.201 2.96481C121.213 2.96481 121.227 2.96481 121.239 2.96481C121.247 2.96481 121.255 2.96481 121.262 2.96481C121.274 2.96481 121.287 2.9648 121.299 2.96693C121.307 2.96693 121.316 2.96693 121.323 2.96693C121.335 2.96693 121.349 2.96693 121.362 2.96693C121.367 2.96693 121.375 2.96693 121.381 2.96693C121.395 2.96693 121.41 2.96905 121.425 2.96905C121.432 2.96905 121.434 2.96905 121.44 2.96905C121.456 2.96905 121.471 2.96905 121.487 2.96905C121.491 2.96905 121.496 2.96905 121.5 2.96905C121.516 2.97118 121.533 2.97119 121.549 2.97119C121.551 2.97119 121.559 2.97119 121.561 2.97119C121.582 2.97119 121.595 2.97118 121.617 2.97331H121.62C121.638 2.97331 121.657 2.97331 121.675 2.97331C121.678 2.97331 121.68 2.97331 121.683 2.97331C121.807 2.97756 121.927 2.97969 122.051 2.98394C122.053 2.98394 122.054 2.98394 122.056 2.98394C122.074 2.98394 122.095 2.98394 122.113 2.98394C122.115 2.98394 122.115 2.98394 122.117 2.98394C122.138 2.98607 122.152 2.98608 122.173 2.98608C122.175 2.98608 122.178 2.98608 122.182 2.98608C122.196 2.98608 122.218 2.9882 122.234 2.9882C122.236 2.9882 122.241 2.9882 122.243 2.9882C122.258 2.9882 122.28 2.98819 122.296 2.99032C122.3 2.99032 122.298 2.99032 122.303 2.99032C122.323 2.99032 122.34 2.99033 122.36 2.99246C122.362 2.99246 122.359 2.99033 122.362 2.99246C122.383 2.99246 122.401 2.99246 122.421 2.99246H122.423C122.444 2.99459 122.463 2.99458 122.483 2.99458C122.486 2.99458 122.482 2.99458 122.486 2.99458C125.838 3.09455 129.15 3.3434 132.421 3.73478H132.423C132.443 3.7369 132.461 3.73905 132.481 3.74117C132.503 3.7433 132.52 3.74542 132.54 3.74755L132.545 3.74967C132.582 3.75392 132.62 3.75819 132.662 3.76244C132.682 3.7667 132.699 3.76668 132.719 3.77094C132.721 3.77094 132.721 3.77094 132.724 3.77094C132.743 3.77307 132.759 3.77519 132.779 3.77732C132.781 3.77732 132.781 3.77732 132.783 3.77732C132.905 3.7922 133.024 3.80711 133.143 3.822C133.163 3.82625 133.183 3.82836 133.203 3.83049C133.223 3.83262 133.238 3.83476 133.258 3.83689C133.26 3.83689 133.269 3.83901 133.271 3.83901C133.289 3.84113 133.302 3.84326 133.32 3.84538C133.324 3.84538 133.324 3.8454 133.331 3.84752C133.344 3.84752 133.36 3.84963 133.375 3.85176C133.382 3.85389 133.386 3.8539 133.393 3.8539C133.406 3.85603 133.419 3.85815 133.435 3.86028C133.439 3.86028 133.446 3.8624 133.45 3.8624C133.468 3.86452 133.479 3.86665 133.492 3.86665C133.497 3.86878 133.505 3.86879 133.51 3.86879C133.525 3.87092 133.539 3.87304 133.554 3.87517C133.558 3.87517 133.565 3.87729 133.569 3.87729C133.58 3.87942 133.596 3.88154 133.609 3.88367C133.616 3.88367 133.622 3.88368 133.629 3.88581C133.642 3.88793 133.653 3.88794 133.667 3.89006C133.675 3.89219 133.68 3.89218 133.689 3.89218C133.702 3.89431 133.711 3.89643 133.724 3.89856C133.731 3.89856 133.739 3.9007 133.748 3.9007C133.759 3.90283 133.775 3.90494 133.786 3.90494C133.79 3.90706 133.801 3.90707 133.806 3.90919C133.821 3.91132 133.834 3.91133 133.85 3.91345C133.854 3.91558 133.859 3.91557 133.863 3.91557C133.881 3.9177 133.896 3.91984 133.912 3.92197C133.916 3.92197 133.923 3.92409 133.925 3.92409C133.945 3.92622 133.96 3.92835 133.98 3.9326C133.985 3.9326 133.987 3.9326 133.991 3.9326C134.009 3.93473 134.022 3.93685 134.04 3.93898C134.044 3.94111 134.053 3.94111 134.06 3.94324C134.071 3.94324 134.084 3.94535 134.097 3.94748C134.106 3.9496 134.117 3.94961 134.126 3.95174C134.137 3.95174 134.144 3.95387 134.152 3.95387C134.161 3.956 134.175 3.95811 134.183 3.95811C134.194 3.96024 134.203 3.96237 134.212 3.96237C134.221 3.9645 134.23 3.9645 134.241 3.96663C134.25 3.96876 134.261 3.96876 134.269 3.97089C134.278 3.97301 134.289 3.97302 134.296 3.97514C134.307 3.97514 134.318 3.97726 134.329 3.97938C134.338 3.97938 134.349 3.98151 134.358 3.98364C134.369 3.98364 134.373 3.98578 134.384 3.98578C134.393 3.98791 134.406 3.99002 134.415 3.99002C134.426 3.99214 134.433 3.99428 134.444 3.99428C134.453 3.9964 134.464 3.99853 134.475 3.99853C134.484 4.00066 134.493 4.00066 134.504 4.00279C134.512 4.00492 134.521 4.00492 134.53 4.00705C134.541 4.00918 134.548 4.00916 134.559 4.01129C134.568 4.01129 134.583 4.01342 134.592 4.01555C134.596 4.01555 134.603 4.01769 134.61 4.01769C134.623 4.01981 134.636 4.02194 134.649 4.02406C134.654 4.02406 134.658 4.02405 134.665 4.02618C134.678 4.02831 134.694 4.03043 134.707 4.03256C134.709 4.03256 134.711 4.03256 134.713 4.03256C134.802 4.04532 134.897 4.0581 134.985 4.07086C134.987 4.07086 134.987 4.07086 134.989 4.07086C135.027 4.07724 135.065 4.08149 135.102 4.08787C135.12 4.09 135.137 4.09211 135.155 4.09637H135.159C135.175 4.0985 135.193 4.10064 135.21 4.10277C135.212 4.10277 135.215 4.10488 135.217 4.10488C135.235 4.10701 135.248 4.10913 135.268 4.11126C135.27 4.11126 135.268 4.11126 135.27 4.11126C135.29 4.11552 135.303 4.11765 135.323 4.11978C135.325 4.11978 135.325 4.11978 135.327 4.11978C135.345 4.12403 135.365 4.12615 135.38 4.12827C135.4 4.1304 135.418 4.13466 135.436 4.13679H135.438C168.888 9.07147 197.229 28.9399 212.906 56.4508C194.707 31.9688 166.389 14.9463 133.843 11.0347C133.154 14.8229 126.657 17.7944 118.741 17.7944C110.964 17.7944 104.558 14.9271 103.681 11.2346C84.4894 13.8147 66.7429 21.0104 51.7344 31.6242C51.7613 31.5753 51.7885 31.5285 51.8145 31.4796V31.4817C51.6575 31.62 51.5014 31.7604 51.3455 31.9007C40.1731 39.8707 30.5321 49.7464 22.96 61.026" fill="#FCD199"/>
<path d="M134.624 128.654C134.658 128.639 134.692 128.627 134.725 128.613C134.692 128.627 134.656 128.639 134.624 128.654ZM134.753 128.601C134.778 128.591 134.8 128.583 134.825 128.573C134.799 128.583 134.78 128.591 134.753 128.601ZM134.857 128.559C134.881 128.549 134.909 128.539 134.931 128.529C134.907 128.539 134.882 128.549 134.857 128.559ZM134.957 128.519C134.991 128.505 135.02 128.492 135.054 128.48C135.023 128.492 134.99 128.506 134.957 128.519ZM135.059 128.478C135.094 128.464 135.128 128.45 135.164 128.436C135.129 128.45 135.094 128.464 135.059 128.478ZM135.17 128.433C135.201 128.42 135.235 128.407 135.266 128.393C135.233 128.407 135.202 128.42 135.17 128.433ZM135.285 128.386C135.316 128.375 135.342 128.364 135.373 128.351C135.343 128.362 135.314 128.375 135.285 128.386ZM135.387 128.344C135.421 128.331 135.454 128.318 135.487 128.304C135.455 128.318 135.421 128.331 135.387 128.344ZM135.49 128.303C135.564 128.273 135.631 128.245 135.703 128.215C135.633 128.245 135.562 128.273 135.49 128.303ZM135.712 128.212C135.744 128.2 135.777 128.185 135.809 128.173C135.775 128.185 135.746 128.2 135.712 128.212ZM135.819 128.169C135.962 128.111 136.102 128.053 136.245 127.995C136.102 128.053 135.962 128.111 135.819 128.169ZM136.248 127.992C136.571 127.859 136.889 127.727 137.212 127.594C136.891 127.727 136.569 127.86 136.248 127.992ZM137.217 127.592C137.359 127.532 137.499 127.474 137.641 127.415C137.5 127.473 137.358 127.534 137.217 127.592ZM137.646 127.412C137.786 127.354 137.927 127.295 138.068 127.235C137.927 127.295 137.786 127.354 137.646 127.412ZM138.077 127.231C138.215 127.173 138.358 127.112 138.497 127.054C138.356 127.114 138.218 127.172 138.077 127.231ZM138.507 127.05C138.537 127.037 138.57 127.023 138.601 127.009C138.572 127.023 138.537 127.037 138.507 127.05ZM138.61 127.006C138.713 126.962 138.82 126.917 138.923 126.873C138.82 126.917 138.714 126.962 138.61 127.006ZM138.936 126.868C138.968 126.853 138.993 126.844 139.024 126.829C138.996 126.842 138.965 126.855 138.936 126.868ZM139.042 126.822C139.076 126.808 139.106 126.795 139.14 126.781C139.106 126.795 139.077 126.808 139.042 126.822ZM139.14 126.78C139.209 126.75 139.28 126.721 139.349 126.692C139.28 126.721 139.209 126.75 139.14 126.78ZM139.366 126.684C139.394 126.672 139.423 126.66 139.45 126.648C139.423 126.66 139.394 126.672 139.366 126.684ZM139.469 126.64C139.498 126.627 139.525 126.616 139.554 126.603C139.528 126.616 139.497 126.627 139.469 126.64ZM139.573 126.595C139.641 126.566 139.705 126.538 139.771 126.51C139.705 126.538 139.641 126.566 139.573 126.595ZM139.802 126.497C139.826 126.486 139.848 126.476 139.873 126.466C139.849 126.476 139.824 126.487 139.802 126.497ZM139.904 126.453C139.926 126.443 139.949 126.433 139.971 126.424C139.948 126.433 139.927 126.442 139.904 126.453ZM140.003 126.409C140.03 126.398 140.056 126.387 140.083 126.376C140.058 126.385 140.028 126.4 140.003 126.409ZM140.102 126.367C140.133 126.353 140.169 126.337 140.2 126.325C140.168 126.339 140.134 126.353 140.102 126.367ZM140.225 126.315C140.25 126.303 140.272 126.293 140.297 126.284C140.274 126.293 140.249 126.305 140.225 126.315ZM140.334 126.267C140.353 126.258 140.372 126.25 140.392 126.241C140.372 126.25 140.353 126.258 140.334 126.267ZM140.436 126.223C140.454 126.216 140.47 126.207 140.489 126.2C140.47 126.207 140.454 126.214 140.436 126.223ZM140.533 126.18C140.548 126.173 140.566 126.166 140.582 126.159C140.564 126.166 140.55 126.173 140.533 126.18ZM140.676 126.118C140.69 126.111 140.704 126.107 140.717 126.1C140.705 126.105 140.689 126.112 140.676 126.118ZM140.773 126.076C140.784 126.071 140.799 126.064 140.809 126.059C140.798 126.064 140.784 126.07 140.773 126.076ZM140.868 126.033C140.88 126.029 140.892 126.023 140.902 126.019C140.892 126.023 140.88 126.029 140.868 126.033ZM140.965 125.991C140.968 125.991 140.971 125.989 140.972 125.988C140.971 125.989 140.968 125.991 140.965 125.991ZM141.218 125.881C141.22 125.879 141.223 125.879 141.228 125.876C141.225 125.878 141.22 125.879 141.218 125.881ZM141.309 125.841L141.312 125.84L141.309 125.841Z" fill="#5B6D54"/>
<path d="M66.0869 143.096C57.8968 143.096 49.9213 142.384 42.2474 140.926C38.4607 140.025 34.7509 138.94 31.135 137.65C24.4691 135.274 19.6948 129.579 18.6111 122.812C17.6936 117.08 17.2664 111.194 17.3749 105.192C17.898 76.2888 30.9134 50.2984 51.3462 31.8997C51.476 31.8061 51.6049 31.7144 51.7349 31.6227C43.9899 45.5358 39.463 61.3494 39.1591 78.1463C39.1535 78.4623 39.1488 78.7784 39.1466 79.0945C38.9918 96.7167 51.9993 111.857 69.9775 115.143C77.4017 116.499 85.1005 117.16 93.0025 117.16C114.825 117.16 138.196 112.113 161.561 102.71C178.143 96.0358 193.213 87.7671 206.157 78.1443C190.956 97.6942 168.365 113.949 141.313 125.839L141.309 125.841C141.283 125.852 141.257 125.864 141.228 125.876C141.224 125.878 141.222 125.88 141.218 125.88C141.135 125.917 141.056 125.952 140.973 125.987C140.971 125.989 140.969 125.991 140.967 125.991C140.945 126.001 140.924 126.008 140.904 126.018C140.892 126.022 140.88 126.028 140.87 126.032C140.849 126.041 140.831 126.049 140.811 126.059C140.801 126.063 140.785 126.071 140.772 126.075C140.752 126.082 140.738 126.09 140.718 126.098C140.704 126.106 140.691 126.11 140.677 126.118C140.645 126.129 140.614 126.145 140.582 126.159C140.566 126.164 140.55 126.172 140.533 126.18C140.519 126.186 140.503 126.192 140.489 126.2C140.471 126.207 140.454 126.213 140.438 126.221C140.424 126.227 140.408 126.233 140.394 126.241C140.373 126.248 140.353 126.258 140.335 126.266C140.323 126.272 140.311 126.276 140.298 126.283C140.272 126.293 140.25 126.303 140.226 126.313C140.215 126.317 140.209 126.32 140.201 126.324C140.171 126.336 140.134 126.352 140.104 126.367C140.096 126.369 140.092 126.371 140.084 126.373C140.057 126.387 140.031 126.397 140.005 126.408C139.995 126.412 139.982 126.418 139.972 126.424C139.95 126.434 139.928 126.443 139.903 126.453C139.893 126.457 139.883 126.461 139.873 126.465C139.849 126.475 139.826 126.484 139.802 126.496C139.794 126.5 139.782 126.504 139.772 126.51C139.705 126.537 139.64 126.566 139.575 126.594C139.567 126.598 139.561 126.599 139.555 126.603C139.527 126.615 139.5 126.627 139.47 126.639C139.464 126.642 139.458 126.644 139.452 126.646C139.423 126.658 139.395 126.672 139.369 126.683C139.361 126.685 139.356 126.687 139.35 126.691C139.282 126.72 139.211 126.75 139.142 126.779H139.14C139.107 126.795 139.077 126.806 139.042 126.822C139.038 126.824 139.03 126.826 139.024 126.83C138.994 126.841 138.97 126.853 138.937 126.867C138.931 126.869 138.929 126.871 138.923 126.873C138.822 126.916 138.714 126.962 138.611 127.005C138.607 127.007 138.607 127.007 138.603 127.009C138.57 127.021 138.538 127.037 138.508 127.048C138.504 127.05 138.502 127.052 138.498 127.052C138.358 127.113 138.216 127.171 138.078 127.23C138.076 127.232 138.07 127.234 138.07 127.236C137.928 127.294 137.789 127.353 137.647 127.411C137.645 127.413 137.645 127.413 137.643 127.413C137.499 127.474 137.361 127.53 137.217 127.591C137.215 127.593 137.213 127.593 137.213 127.593C136.891 127.727 136.571 127.858 136.249 127.991L136.245 127.993C136.103 128.051 135.961 128.11 135.82 128.168C135.815 128.168 135.813 128.17 135.809 128.172C135.777 128.186 135.745 128.197 135.712 128.211C135.71 128.213 135.706 128.215 135.704 128.215C135.631 128.244 135.564 128.272 135.491 128.301C135.491 128.303 135.491 128.303 135.487 128.303C135.455 128.316 135.422 128.33 135.388 128.344C135.384 128.346 135.38 128.348 135.374 128.35C135.343 128.363 135.317 128.373 135.285 128.385C135.279 128.387 135.273 128.391 135.266 128.393C135.236 128.406 135.202 128.42 135.171 128.432C135.169 128.432 135.167 128.434 135.165 128.434C135.129 128.449 135.094 128.463 135.06 128.476C135.056 128.478 135.056 128.478 135.056 128.478C135.021 128.492 134.993 128.504 134.959 128.517C134.948 128.521 134.94 128.525 134.932 128.527C134.91 128.537 134.882 128.549 134.859 128.558C134.849 128.562 134.837 128.566 134.827 128.572C134.801 128.582 134.778 128.59 134.754 128.601C134.744 128.603 134.734 128.609 134.726 128.611C134.691 128.627 134.659 128.638 134.624 128.652C111.264 138.054 87.9051 143.096 66.0869 143.096Z" fill="#BF6700"/>
<path d="M51.3457 31.8987C51.5016 31.7581 51.6576 31.6195 51.8147 31.4809V31.479C51.7885 31.5278 51.7616 31.5746 51.7344 31.6234C51.6045 31.7152 51.4756 31.8069 51.3457 31.8987Z" fill="#D19982"/>
<path d="M66.6677 42.3087C65.5603 45.6621 63.6473 48.1165 62.4291 47.7441C61.2111 47.3698 61.1207 44.3038 62.228 40.9484C63.3342 37.5949 65.2484 35.1406 66.4666 35.513C67.6079 35.8641 67.773 38.5847 66.8428 41.7472L66.6677 42.3087" fill="#FCE69F"/>
<path d="M84.7451 44.4691C84.1203 47.9386 82.5699 50.6192 81.3099 50.4086C80.0511 50.1979 79.5291 47.1708 80.1539 43.7033C80.7799 40.2338 82.3303 37.5532 83.5891 37.7639C84.77 37.9611 85.3157 40.6359 84.8399 43.8909L84.7451 44.4691Z" fill="#FCE69F"/>
<path d="M108.083 43.7724C108.592 47.2589 107.97 50.2686 106.704 50.439C105.437 50.6113 103.978 47.883 103.469 44.3965C102.961 40.912 103.585 37.9022 104.849 37.7319C106.036 37.571 107.407 39.9547 107.99 43.1942L108.083 43.7724Z" fill="#FCE69F"/>
<path d="M127.6 36.5642C129.534 39.5507 130.23 42.5449 129.147 43.1964C128.063 43.8479 125.578 41.9246 123.646 38.9382C121.71 35.9517 121.013 32.9575 122.097 32.306C123.114 31.6954 125.372 33.3398 127.267 36.0727L127.6 36.5642" fill="#FCE69F"/>
<path d="M142.567 24.6101C145.16 27.0932 146.548 29.8546 145.645 30.7281C144.743 31.5995 141.872 30.2742 139.281 27.7911C136.69 25.308 135.3 22.5465 136.202 21.6731C137.048 20.8562 139.635 21.9596 142.131 24.2026L142.567 24.6101Z" fill="#FCE69F"/>
<path d="M69.0745 99.2328C67.858 99.2328 66.875 98.2845 66.875 97.1143C66.875 95.9426 67.858 94.9943 69.0745 94.9943C70.2895 94.9943 71.2741 95.9426 71.2741 97.1143C71.2741 98.2845 70.2895 99.2328 69.0745 99.2328Z" fill="#BF6700"/>
<path d="M104.562 79.1007C103.348 79.1007 102.362 78.1516 102.362 76.9817C102.362 75.81 103.348 74.8609 104.562 74.8609C105.777 74.8609 106.763 75.81 106.763 76.9817C106.763 78.1516 105.777 79.1007 104.562 79.1007Z" fill="#BF6700"/>
<path d="M111.834 101.155C110.617 101.155 109.634 100.206 109.634 99.0368C109.634 97.8662 110.617 96.9173 111.834 96.9173C113.048 96.9173 114.033 97.8662 114.033 99.0368C114.033 100.206 113.048 101.155 111.834 101.155Z" fill="#E99335"/>
<path d="M133.066 75.2141C131.851 75.2141 130.867 74.2652 130.867 73.0941C130.867 71.9247 131.851 70.9758 133.066 70.9758C134.282 70.9758 135.268 71.9247 135.268 73.0941C135.268 74.2652 134.282 75.2141 133.066 75.2141Z" fill="#E99335"/>
<path d="M155.781 92.5578C154.566 92.5578 153.58 91.6086 153.58 90.4399C153.58 89.2679 154.566 88.3204 155.781 88.3204C156.997 88.3204 157.983 89.2679 157.983 90.4399C157.983 91.6086 156.997 92.5578 155.781 92.5578Z" fill="#BF6700"/>
<path d="M158.724 60.4921C157.509 60.4921 156.524 59.5436 156.524 58.3736C156.524 57.2018 157.509 56.2532 158.724 56.2532C159.941 56.2532 160.924 57.2018 160.924 58.3736C160.924 59.5436 159.941 60.4921 158.724 60.4921Z" fill="#BF6700"/>
<path d="M174.54 42.3319C173.325 42.3319 172.339 41.3838 172.339 40.2141C172.339 39.0443 173.325 38.0943 174.54 38.0943C175.754 38.0943 176.741 39.0443 176.741 40.2141C176.741 41.3838 175.754 42.3319 174.54 42.3319Z" fill="#BF6700"/>
<path d="M69.5146 77.224C68.2999 77.224 67.3145 76.2752 67.3145 75.104C67.3145 73.9345 68.2999 72.9857 69.5146 72.9857C70.7304 72.9857 71.7159 73.9345 71.7159 75.104C71.7159 76.2752 70.7304 77.224 69.5146 77.224Z" fill="#E99335"/>
<path d="M196.122 62.2918C194.907 62.2918 193.923 61.3437 193.923 60.1737C193.923 59.0038 194.907 58.0538 196.122 58.0538C197.339 58.0538 198.323 59.0038 198.323 60.1737C198.323 61.3437 197.339 62.2918 196.122 62.2918Z" fill="#BF6700"/>
<path d="M181.855 85.4351C180.641 85.4351 179.654 84.4851 179.654 83.3151C179.654 82.1451 180.641 81.1968 181.855 81.1968C183.07 81.1968 184.055 82.1451 184.055 83.3151C184.055 84.4851 183.07 85.4351 181.855 85.4351Z" fill="#E99335"/>
<path d="M119.132 5.14922C62.274 5.14922 15.5065 49.2116 14.5122 104.128C14.4069 109.953 14.8217 115.805 15.7461 121.519C16.6997 127.417 20.8717 132.364 26.636 134.43C56.5549 145.149 94.592 142.374 133.742 126.618C166.984 113.239 192.795 94.0992 208.381 71.2642C211.942 66.0517 212.096 59.2552 208.773 53.9526C189.996 23.9633 157.123 5.72364 120.841 5.16209C120.271 5.15352 119.7 5.14922 119.132 5.14922V5.14922ZM66.0335 145.309C51.3118 145.309 37.5664 143.051 25.0391 138.563C17.7247 135.942 12.4302 129.67 11.2218 122.196C10.2578 116.235 9.82474 110.129 9.93467 104.051C10.4407 76.0996 22.2944 49.9339 43.3124 30.3761C64.3249 10.8247 91.8845 0.288174 120.914 0.753274C139.728 1.04477 158.207 6.03012 174.358 15.1692C190.04 24.0447 203.297 36.6689 212.694 51.6743C216.92 58.4236 216.729 67.0633 212.209 73.6862C196.118 97.2584 169.594 116.968 135.506 130.686C115.759 138.634 96.347 143.397 77.8079 144.842C73.819 145.153 69.8924 145.309 66.0335 145.309" fill="#6D184E"/>
<path d="M184.849 210.322C183.531 217.175 176.693 221.698 169.579 220.428C162.466 219.156 157.767 212.572 159.089 205.72C159.863 201.694 161.538 202.608 164.272 203.522C166.19 204.164 168.627 204.805 171.639 203.74C180.239 200.698 186.168 203.471 184.849 210.322" fill="#FCAF15"/>
<path d="M169.555 220.424H169.554H169.555ZM178.319 211.71C178.64 210.942 178.885 210.132 179.049 209.287C179.658 206.124 178.708 203.844 176.678 202.59C177.127 202.548 177.56 202.529 177.98 202.529C182.9 202.529 185.778 205.313 184.862 210.246C185.155 208.67 185.048 207.321 184.624 206.201C183.133 208.408 180.894 210.439 178.319 211.71M184.853 210.298C184.853 210.295 184.855 210.292 184.855 210.289C184.855 210.292 184.853 210.294 184.853 210.298ZM184.859 210.274C184.859 210.265 184.86 210.257 184.862 210.249C184.86 210.257 184.859 210.265 184.859 210.274Z" fill="#FED78A"/>
<path d="M169.578 220.428C169.571 220.426 169.564 220.425 169.556 220.424C169.563 220.425 169.571 220.426 169.578 220.428ZM184.012 212.992C184.385 212.152 184.668 211.259 184.849 210.323C184.851 210.315 184.852 210.306 184.854 210.298C184.852 210.306 184.851 210.314 184.849 210.323C184.668 211.259 184.385 212.152 184.012 212.992" fill="#D18126"/>
<path d="M159.09 205.719C159.09 205.716 159.09 205.711 159.092 205.706C159.09 205.711 159.09 205.716 159.09 205.719Z" fill="#6D184E"/>
<path d="M169.555 220.424C162.454 219.143 157.769 212.565 159.088 205.72C159.088 205.717 159.089 205.712 159.089 205.708C159.494 203.625 160.139 202.873 161.05 202.756C162.367 207.223 165.965 212.004 171.027 212.909C171.631 213.016 172.233 213.068 172.835 213.068C174.732 213.068 176.601 212.557 178.319 211.71C176.403 216.29 171.846 219.37 166.742 219.582C167.627 219.954 168.564 220.244 169.555 220.424M184.854 210.289C184.856 210.285 184.857 210.279 184.857 210.274C184.857 210.279 184.856 210.285 184.854 210.289ZM184.863 210.249C184.863 210.249 184.863 210.248 184.863 210.246C184.863 210.248 184.863 210.249 184.863 210.249Z" fill="#D18126"/>
<path d="M172.065 220.641C177.27 220.609 181.977 217.58 184.012 212.992C181.977 217.581 177.27 220.61 172.065 220.641" fill="#D3B392"/>
<path d="M171.983 220.641C171.191 220.641 170.385 220.572 169.579 220.428C169.57 220.426 169.563 220.425 169.556 220.424H169.555C168.566 220.244 167.628 219.953 166.742 219.582C171.848 219.37 176.402 216.29 178.32 211.71C180.895 210.439 183.134 208.408 184.624 206.201C185.048 207.321 185.156 208.67 184.864 210.246C184.864 210.247 184.864 210.248 184.864 210.248C184.861 210.257 184.861 210.265 184.859 210.274C184.857 210.279 184.857 210.284 184.855 210.289C184.855 210.292 184.854 210.295 184.854 210.298C184.852 210.306 184.85 210.315 184.848 210.323C184.67 211.259 184.385 212.152 184.013 212.992C181.977 217.58 177.269 220.609 172.067 220.641C172.037 220.641 172.011 220.641 171.983 220.641" fill="#D29D78"/>
<path d="M161.642 204.995C161.559 205.204 161.447 205.556 161.338 206.123C160.812 208.858 161.422 211.626 163.056 213.919C164.692 216.211 167.157 217.752 169.996 218.26C172.836 218.766 175.709 218.18 178.09 216.604C180.471 215.03 182.07 212.655 182.598 209.921C182.856 208.58 182.892 206.763 181.604 205.715C179.938 204.361 176.423 204.398 172.427 205.811C168.325 207.262 165.073 206.142 162.92 205.401C162.513 205.261 161.996 205.082 161.642 204.995V204.995ZM172.001 222.849C171.058 222.849 170.108 222.765 169.159 222.595C165.12 221.874 161.612 219.679 159.283 216.415C156.955 213.152 156.086 209.212 156.836 205.319C157.129 203.801 157.676 201.944 159.333 201.025C161.049 200.073 162.862 200.698 164.463 201.249C166.351 201.899 168.304 202.572 170.85 201.672C176.553 199.654 181.548 199.9 184.556 202.345C186.874 204.229 187.777 207.206 187.098 210.725C186.35 214.619 184.071 217.997 180.683 220.239C178.089 221.955 175.082 222.849 172.001 222.849" fill="#6D184E"/>
<path d="M201.885 123.418C202.81 123.827 203.891 123.722 204.768 123.228C208.39 121.178 219.959 114.405 221.907 110.41C224.079 105.955 195.347 120.525 201.885 123.418Z" fill="#E5525F"/>
</svg>
